<svg xmlns="http://www.w3.org/2000/svg" width="399" height="170" viewBox="0 0 399 170" data-theme="light" data-conn="main/J13" data-cat="rtc" data-fill="#7d4e00" data-heading="hub-j13-rtc_bat"><rect x="0.5" y="0.5" width="398" height="169" rx="10" fill="#ffffff" stroke="#d0d7de"/><text x="16" y="32" font-family="'IBM Plex Sans', -apple-system, 'Segoe UI', Helvetica, Arial, sans-serif" font-size="16" font-weight="700" fill="#1f2328">J13 RTC_BAT</text><text x="16" y="49" font-family="'IBM Plex Sans', -apple-system, 'Segoe UI', Helvetica, Arial, sans-serif" font-size="11" fill="#57606a">JST-SH 1x2, side entry</text><rect x="22" y="74" width="44" height="68" rx="4" fill="#dfe3e8" stroke="#57606a"/><rect x="18" y="82" width="4" height="52" rx="1" fill="#57606a"/><g id="main-J13-pin-1" data-pin="1"><rect x="37.0" y="87.0" width="14" height="14" fill="#ffffff" stroke="#57606a"/><text x="44.0" y="97.0" text-anchor="middle" font-family="'IBM Plex Sans', -apple-system, 'Segoe UI', Helvetica, Arial, sans-serif" font-size="8" font-weight="600" fill="#1f2328">1</text><line x1="66" y1="94.0" x2="80" y2="94.0" stroke="#57606a" stroke-width="1"/><rect x="80" y="83.0" width="69" height="22" rx="5" fill="#1f2328"/><text x="88" y="98.3" font-family="'IBM Plex Mono', ui-monospace, SFMono-Regular, Menlo, Consolas, monospace" font-size="12" font-weight="500" fill="#ffffff">GND</text></g><g id="main-J13-pin-2" data-pin="2"><circle cx="44.0" cy="122.0" r="7" fill="#ffffff" stroke="#57606a"/><text x="44.0" y="125.0" text-anchor="middle" font-family="'IBM Plex Sans', -apple-system, 'Segoe UI', Helvetica, Arial, sans-serif" font-size="8" font-weight="600" fill="#1f2328">2</text><line x1="66" y1="122.0" x2="80" y2="122.0" stroke="#57606a" stroke-width="1"/><rect x="80" y="111.0" width="69" height="22" rx="5" fill="#7d4e00"/><text x="88" y="126.3" font-family="'IBM Plex Mono', ui-monospace, SFMono-Regular, Menlo, Consolas, monospace" font-size="12" font-weight="500" fill="#ffffff">VBAT 3V</text><rect x="155" y="111.0" width="69" height="22" rx="5" fill="none" stroke="#7d4e00" stroke-width="1.5"/><text x="163" y="126.3" font-family="'IBM Plex Mono', ui-monospace, SFMono-Regular, Menlo, Consolas, monospace" font-size="12" font-weight="500" fill="#7d4e00">VDD_BAT</text><rect x="230" y="111.0" width="153" height="22" rx="5" fill="none" stroke="#57606a" stroke-width="1.5"/><text x="238" y="126.3" font-family="'IBM Plex Mono', ui-monospace, SFMono-Regular, Menlo, Consolas, monospace" font-size="12" font-weight="500" fill="#57606a">to MCU VBAT via D6</text></g></svg>
